<?xml version="1.0" standalone="no"?>
<!DOCTYPE svg PUBLIC "-//W3C//DTD SVG 20010904//EN"
 "http://www.w3.org/TR/2001/REC-SVG-20010904/DTD/svg10.dtd">
<svg version="1.0" xmlns="http://www.w3.org/2000/svg"
 width="700.000000pt" height="700.000000pt" viewBox="0 0 700.000000 700.000000"
 preserveAspectRatio="xMidYMid meet">
<metadata>
Created by potrace 1.14, written by Peter Selinger 2001-2017
</metadata>
<g transform="translate(0.000000,700.000000) scale(0.100000,-0.100000)"
fill="#000000" stroke="none">
<path d="M2 4828 l3 -1133 1686 -1 1685 -2 0 1134 0 1134 -1688 0 -1688 0 2
-1132z"/>
<path d="M3746 4828 l0 -1133 1141 -1 c845 -1 1143 1 1145 10 2 6 4 515 4
1131 l-1 1120 -1145 3 -1145 2 1 -1132z"/>
<path d="M966 3340 c-1 -3 -2 -513 -2 -1135 l1 -1130 1206 0 1205 0 0 1132 c0
1022 -1 1133 -15 1134 -55 4 -2393 3 -2395 -1z"/>
<path d="M3757 3338 c-8 -5 -11 -330 -11 -1128 -1 -617 1 -1125 4 -1129 3 -4
735 -7 1628 -6 l1622 0 -2 1135 -3 1134 -1613 1 c-888 0 -1619 -3 -1625 -7z"/>
</g>
</svg>
